<svg xmlns="http://www.w3.org/2000/svg" viewBox="0 0 32 32"><path fill="#FFF" d="M21.68,13.85A5.81,5.81,0,0,0,23,14,6,6,0,0,0,23,2a5.9,5.9,0,0,0-3.5,1.13,6.12,6.12,0,0,0-7,0A5.9,5.9,0,0,0,9,2,6,6,0,0,0,9,14a5.64,5.64,0,0,0,1.3-.16A16.18,16.18,0,0,1,12,19.61,6.06,6.06,0,0,1,10.18,19l.24-.13a1,1,0,1,0-.86-1.8C8.27,17.69,8,18.46,8,19c0,1.54,2,2.28,4,2.65,0,.1,0,.19,0,.29A15.94,15.94,0,0,1,10.37,28H9a1,1,0,0,0,0,2H23a1,1,0,0,0,0-2H21.79A14.85,14.85,0,0,1,20,22.31c0-.22,0-.43,0-.65,2-.37,4-1.11,4-2.66,0-.54-.27-1.32-1.57-1.93a1,1,0,0,0-1.33.47,1,1,0,0,0,.48,1.34,1.29,1.29,0,0,1,.24.13,6.74,6.74,0,0,1-1.83.61A15.57,15.57,0,0,1,21.68,13.85ZM5,8a4,4,0,0,1,6.79-2.86,1,1,0,0,0,1.41,0A4.11,4.11,0,0,1,18.59,5a.88.88,0,0,0,.19.24,1,1,0,0,0,1.39,0A4,4,0,1,1,23,12a4.07,4.07,0,0,1-2.1-.6,1,1,0,0,0-1.69-1,4,4,0,0,1-6.42,0,1,1,0,0,0-1.69,1A4,4,0,0,1,9,12,4,4,0,0,1,5,8Zm7.17,5.09.32-.23a5.94,5.94,0,0,0,7,0,4,4,0,0,0,.34.23A17.4,17.4,0,0,0,18,19.91c-.6.06-1.25.09-2,.09s-1.41,0-2-.09A18.16,18.16,0,0,0,12.17,13.09ZM18,22.51A17.17,17.17,0,0,0,19.53,28h-7A17.82,17.82,0,0,0,14,22.06v-.15c1,.08,1.76.09,2,.09s1,0,2-.09C18,22.11,18,22.3,18,22.51Z"/></svg>